# xmcd
#
# Track frame offsets:
#	150
#	12199
#	26854
#	40894
#	51994
#	64440
#	79202
#	90294
#	103299
#	118206
#	131837
#	144677
#
# Disc length: 2103 seconds
#
# Revision: 0
# Processed by: cddbd v1.5.2PL0 Copyright (c) Steve Scherf et al.
# Submitted via: EasyCDDAExtractor 16.0.8.2
#
DISCID=b108350c
DTITLE=Συλλογικός δίσκος - Αντικατάσταση-LP, Μ. Μπακάλης
DYEAR=1976
DGENRE=Λαϊκή
TTITLE0=Θωμάς Θεόδωρος-Μιχαήλ Άντζυ - Αντικατάσταση [Ν. Νιφόρου]
TTITLE1=Γκαρώνης Πέτρος - Μελανούρι μου γλυκό [Ν.Παρασκευόπουλου]
TTITLE2=Μιχαήλ Άντζυ - Μετά από μένα [Βαγ. Ματζώρου]
TTITLE3=Γκαρώνης Πέτρος - Τα ερείπια [Δημ. Γκούτη]
TTITLE4=Μιχαήλ Άντζυ - Στη ζωή μου τη μαύρη [Κ. Βίρβου]
TTITLE5=Θωμάς Θεόδωρος-χορωδία - Πάρ' τ' αυγό και κούρεψέ το [Μπ. Μπακάλη]
TTITLE6=Θωμάς Θεόδωρος - Με κλάμα και με πόνο [Μπ. Μπακάλη]
TTITLE7=Μιχαήλ Άντζυ - Σήμανε η ώρα 4 [Κ. Νίτσου]
TTITLE8=Γκαρώνης Πέτρος-Μιχαήλ Άντζυ - Τυχαία γνωριμία [Μπ. Μπακάλη]
TTITLE9=Μιχαήλ Άντζυ - Το παρελθόν [Μπ. Μπακάλη]
TTITLE10=Γκαρώνης Πέτρος - Ο ξεγραμένος [Ηλ. Πολύδωρου]
TTITLE11=Σκούρτης Λάκης-Ντορέ Φανή-χορωδία - Ώα! ώα! Δημητράκη [Δημ.Χατζηαναγν
TTITLE11=ώστου]
EXTD=
EXTT0=
EXTT1=
EXTT2=
EXTT3=
EXTT4=
EXTT5=
EXTT6=
EXTT7=
EXTT8=
EXTT9=
EXTT10=
EXTT11=
PLAYORDER=
